<svg width="135" height="243" viewBox="0 0 135 243" fill="none" xmlns="http://www.w3.org/2000/svg">
<path opacity="0.5" d="M132.983 232.058C117.779 234.894 102.939 237.645 87.424 240.539C86.8979 233.852 86.4175 227.803 85.889 221.154C81.4347 222.723 77.31 224.166 73.1971 225.606C72.3039 225.92 71.4177 226.308 70.4933 226.505C67.3808 227.189 66.2133 226.527 65.2959 223.383C62.9133 215.193 60.5977 206.972 58.2736 198.766C57.4257 195.742 56.6362 192.702 55.814 189.633C44.348 188.979 33.5892 190.824 22.3354 191.476C19.171 165.262 16.1082 139.333 12.8871 113.422C9.66212 87.4498 6.2937 61.5031 2.99473 35.6755C19.3727 24.4965 35.4748 13.5041 52.1201 2.1535C57.5285 28.9791 60.4905 55.5599 64.2828 82.2934C69.4829 81.4502 74.4195 80.6527 79.8862 79.7756C79.9874 85.2509 80.0915 90.3628 80.1927 95.8381C85.3946 90.7926 90.1843 86.0327 95.0997 81.4142C99.8763 76.9329 104.022 71.7328 110.313 67.7587C118.989 122.634 125.24 177.158 132.983 232.058ZM108.614 71.8028C106.852 73.363 105.293 74.6061 103.874 75.9992C97.0332 82.7844 90.3896 89.7919 83.3215 96.3378C80.4007 99.0463 79.7243 101.854 80.0075 105.529C83.0225 144.701 85.9376 183.875 88.9261 223.042C89.2974 227.982 89.8738 232.892 90.4076 238.252C103.694 235.505 116.305 232.901 129.067 230.257C122.23 177.24 115.461 124.855 108.614 71.8028ZM76.8222 83.9606C61.3364 85.4213 45.7879 88.6121 29.6986 90.8599C43.3635 135.544 55.6843 180.076 69.5804 224.361C75.2562 222.44 80.3216 220.72 85.6178 218.926C85.5972 217.306 85.6508 215.916 85.5633 214.514C83.3167 180.501 81.0583 146.491 78.7852 112.472C78.1645 103.234 77.5057 93.9944 76.8222 83.9606ZM54.1278 185.258C53.6307 183.403 53.207 181.728 52.7397 180.078C44.8374 152.269 37.0489 124.418 28.9479 96.6634C27.2936 91.004 27.6348 86.0105 30.023 80.706C34.6382 70.478 38.9252 60.1003 43.3275 49.7792C45.1286 45.5574 44.7883 44.8483 40.4936 43.9732C29.8132 41.8078 19.1125 39.6603 8.41265 37.5627C7.43491 37.3745 6.39735 37.4774 5.14919 37.4492C11.8266 87.8577 18.4499 137.831 25.0653 187.68C34.8604 186.869 44.1129 186.091 54.1278 185.258ZM8.32672 34.9971C10.0655 35.4066 11.5486 35.797 13.0565 36.0933C22.1994 37.9453 31.301 39.971 40.4951 41.5467C44.9346 42.308 47.0568 44.8032 48.0676 48.8092C49.8992 56.1594 51.734 63.5211 53.6155 70.8704C54.6567 74.9433 55.7829 79.006 56.9334 83.2997C58.2702 83.004 59.607 82.7084 61.3008 82.342C58.4464 56.7704 54.6294 31.5817 50.864 6.49181C36.5415 16.082 22.5939 25.4342 8.32672 34.9971ZM46.0354 52.5426C45.7064 52.5307 45.3774 52.5188 45.0484 52.507C40.3258 64.2519 35.5915 76.0001 30.6938 88.1671C38.3781 86.6334 45.4333 85.2306 52.8688 83.751C50.5189 73.0633 48.2814 62.7955 46.0354 52.5426Z" fill="#E06C21"/>
</svg>
