<svg width="86" height="110" viewBox="0 0 86 110" fill="none" xmlns="http://www.w3.org/2000/svg">
<path d="M37.0313 110C33.2373 86.9702 29.5536 64.6022 25.8038 41.7931C23.9068 41.3298 22.0098 40.9107 20.157 40.3592C13.3631 38.3959 7.34127 35.2635 3.28261 29.1531C-2.87157 19.8442 -0.180495 9.03517 9.74559 3.32184C19.0982 -2.0606 34.4946 -0.759103 43.2737 6.18954C52.5601 13.5132 54.3689 21.3001 49.4941 34.2488C61.5377 47.0211 73.7578 59.9478 86 72.9185C82.184 79.051 46.4501 106.493 37.0313 110ZM71.5961 79.5584C57.082 64.2272 43.1193 49.4917 29.4213 35.0209C34.0755 22.2045 30.061 12.0131 18.5026 6.366C17.113 5.68216 15.1498 5.48365 13.6499 5.88071C5.66487 7.99839 1.71649 16.7559 5.0693 24.4325C7.9589 31.0061 13.4293 34.5135 19.804 36.8959C22.451 37.8886 25.1862 38.6386 28.1419 39.5871C32.0241 61.1169 35.8402 82.2716 39.8768 104.75C50.8396 96.0145 60.6995 88.2055 71.5961 79.5584Z" fill="#232F45" fill-opacity="0.5"/>
</svg>
