<svg width="209" height="172" viewBox="0 0 209 172" fill="none" xmlns="http://www.w3.org/2000/svg">
<path d="M22.4927 169.185C21.9244 165.357 21.406 161.865 20.8893 158.384C18.6439 143.34 16.5144 128.278 14.1069 113.257C9.90134 87.0026 5.5122 60.7871 1.20242 34.548C-0.0897127 26.6417 -0.0953408 26.524 7.98351 25.4432C45.5563 20.4106 83.148 15.5055 120.716 10.4381C139.423 7.90978 158.106 5.13611 176.801 2.44364C178.402 2.21794 179.975 1.7353 181.579 1.5328C185.12 1.06633 186.388 2.02827 186.92 5.61296C187.896 12.1907 188.757 18.7856 189.732 25.3517C195.168 61.7271 200.627 98.0991 206.074 134.473C206.16 135.053 206.248 135.644 206.323 136.226C207.117 142.535 206.451 142.989 200.01 143.625C192.241 144.399 184.499 145.596 176.784 146.813C136.272 153.183 95.7766 159.657 55.2485 165.994C46.5138 167.362 37.7193 168.406 28.9248 169.451C26.9703 169.682 24.9361 169.296 22.4927 169.185ZM117.045 150.215C113.271 129.102 109.627 108.704 105.983 88.3061C76.4624 93.0326 47.4048 97.6903 18.046 102.393C21.3658 122.602 24.6852 142.727 27.9654 162.669C57.7693 158.494 87.2044 154.385 117.045 150.215ZM191.308 74.6429C187.361 73.972 118.593 85.367 113.212 87.4818C113.245 92.3264 122.502 145.35 124.119 149.224C149.545 146.102 174.936 141.941 200.7 137.903C197.531 116.557 194.436 95.7102 191.308 74.6429ZM10.9841 63.4369C25.4723 60.954 39.1978 58.5962 52.8653 56.247C52.8839 50.7902 49.3262 28.6603 47.8164 25.2682C33.8939 27.3352 19.8323 29.4227 5.377 31.5687C7.22569 42.1075 9.05543 52.5187 10.9841 63.4369ZM99.0447 48.585C97.5532 38.5386 96.1323 28.9678 94.6546 19.0142C80.3499 21.1379 66.3347 23.2186 52.47 25.2769C54.0046 35.6133 55.4857 45.5901 56.9772 55.6365C71.1711 53.2448 84.94 50.9398 99.0447 48.585ZM104.925 81.8117C103.195 71.8362 101.527 62.1954 99.8008 52.2431C85.3781 54.2895 71.3964 56.4363 57.4945 59.5199C58.974 69.4851 60.3914 79.0326 61.8639 88.9514C76.2599 86.5652 90.4011 84.2168 104.925 81.8117ZM53.8261 59.7681C39.7339 62.287 25.7299 63.7258 11.6021 66.9614C13.4721 77.1651 15.2702 86.9644 17.0924 96.9261C31.363 94.3333 45.0811 91.8461 58.556 89.3951C57.3021 80.9496 56.1236 72.9317 54.9104 64.9189C54.6646 63.3428 54.2566 61.7909 53.8261 59.7681ZM107.717 50.8663C109.259 61.2491 110.693 70.9127 112.18 80.9243C125.445 78.6585 138.284 76.4679 150.65 74.3594C149.117 64.0346 147.679 54.3478 146.192 44.3362C133.062 46.5582 120.465 48.7011 107.717 50.8663ZM102.345 18.2638C103.795 28.0318 105.195 37.4634 106.647 47.243C119.956 45.03 132.801 42.8858 145.788 40.7326C144.806 31.0135 143.906 21.8397 142.027 12.3726C128.475 14.3845 115.41 16.3241 102.345 18.2638ZM185.872 37.6273C173.704 39.7894 162.159 41.8472 150.165 43.9836C151.65 53.9836 153.088 63.6703 154.598 73.8444C166.446 71.5993 178.569 70.7244 190.302 67.4649C188.788 57.2677 187.367 47.6969 185.872 37.6273ZM145.752 12.4243C147.132 21.7166 148.465 30.6957 149.861 40.1041C161.825 38.079 173.383 36.1141 185.117 34.135C183.799 25.2603 182.53 16.7104 181.276 8.26488C177.458 7.58673 153.066 10.4966 145.752 12.4243Z" fill="#347664" fill-opacity="0.5"/>
</svg>
