<svg width="129" height="157" viewBox="0 0 129 157" fill="none" xmlns="http://www.w3.org/2000/svg">
<path opacity="0.5" d="M37.484 155.205C36.5873 152.634 35.6268 150.341 34.9764 147.966C28.0829 122.911 21.2186 97.8619 14.3897 72.7896C10.1595 57.2609 6.03274 41.7044 1.84134 26.1653C0.288299 20.421 1.19403 18.7863 7.22996 17.3757C15.1021 15.5282 23.0087 13.8093 30.8989 12.081C44.875 9.02525 58.8606 5.95313 72.8643 3.0002C75.8138 2.37527 78.8545 1.98773 81.8763 1.83957C85.7831 1.63346 87.5415 3.07795 88.5235 6.53592C94.3973 27.1646 100.391 47.7749 106.135 68.4381C112.014 89.6029 117.657 110.817 123.381 132.023C124.032 134.454 124.609 136.918 124.94 139.392C125.321 142.212 123.857 143.831 121.003 144.141C95.7629 146.88 70.5217 149.564 45.3028 152.434C42.786 152.709 40.4103 154.131 37.484 155.205ZM78.8932 141.67C92.2643 140.182 105.218 138.737 118.76 137.217C114.379 123.038 110.124 109.225 105.835 95.3381C93.4588 97.593 81.6102 99.748 69.2859 101.989C71.6439 115.442 75.7511 128.289 78.8932 141.67ZM93.7583 52.7494C81.7209 55.6992 70.2134 58.507 58.4991 61.3702C61.8205 73.7659 65.0454 85.8015 68.4013 98.3258C80.5903 96.1486 92.5105 94.002 104.25 91.9039C100.666 78.5309 97.2658 65.8395 93.7583 52.7494ZM82.1563 12.7073C69.6269 15.3203 57.7153 17.8092 45.8779 20.2644C48.9374 31.6828 51.8178 42.4326 54.7671 53.4396C67.368 51.0417 79.4709 48.7497 92.0717 46.3518C88.7106 34.9452 85.5105 24.0881 82.1563 12.7073ZM60.2239 103.48C50.3148 105.17 41.108 106.742 31.5454 108.381C35.008 121.303 38.3122 133.635 41.675 146.185C51.6297 144.923 61.3319 143.702 71.5683 142.406C67.7076 129.135 64.0355 116.516 60.2239 103.48ZM51.3222 54.1283C47.9525 42.793 44.7265 31.9428 41.4188 20.839C30.8041 22.6358 20.5504 23.8672 10.5499 26.5606C13.6956 38.3005 16.7139 49.5647 19.7837 61.0217C30.2383 58.7303 40.405 56.5023 51.3222 54.1283ZM59.3677 99.9746C56.0428 87.566 52.8248 75.5561 49.5861 63.469C40.2259 65.3982 31.0854 67.2686 21.6347 69.222C24.5339 81.5931 26.961 93.6495 30.8261 105.541C40.4724 103.646 49.6499 101.862 59.3677 99.9746Z" fill="#702C2B"/>
</svg>
