<svg width="98" height="53" viewBox="0 0 98 53" fill="none" xmlns="http://www.w3.org/2000/svg">
<g clip-path="url(#clip0_93_26)">
<path d="M41.0312 40.0647C41.1862 39.6973 41.4127 39.3939 41.7132 39.1569C42.0136 38.9175 42.3737 38.7398 42.7933 38.6236C43.2154 38.5051 43.6732 38.4482 44.1668 38.4482C44.6603 38.4482 45.1038 38.5099 45.4901 38.6355C45.8788 38.7611 46.2054 38.9317 46.4701 39.1522C46.7348 39.3726 46.9398 39.638 47.0805 39.9509C47.2212 40.2638 47.2903 40.6027 47.2903 40.9701V41.0151C47.2903 41.3896 47.2093 41.738 47.0471 42.0603C46.885 42.3827 46.6466 42.6932 46.3318 42.9918C46.0171 43.2904 45.6332 43.5748 45.1801 43.8521C44.7271 44.1271 44.2073 44.4091 43.6231 44.6959H47.2903V46.3266H40.9072V44.575C41.3579 44.3688 41.7752 44.1721 42.1591 43.9849C42.543 43.7976 42.8911 43.6128 43.2011 43.4279C43.511 43.2454 43.7852 43.0653 44.0261 42.8875C44.2669 42.7121 44.4648 42.5344 44.6246 42.3542C44.7843 42.1741 44.9035 41.9868 44.9846 41.7925C45.0657 41.5981 45.1062 41.3872 45.1062 41.1597V41.1146C45.1062 40.9321 45.08 40.7733 45.0299 40.6406C44.9775 40.5079 44.9035 40.3989 44.8082 40.3088C44.7128 40.2211 44.6007 40.1571 44.4767 40.1168C44.3504 40.0765 44.2144 40.0552 44.0666 40.0552C43.9116 40.0552 43.7614 40.0718 43.6136 40.105C43.4657 40.1381 43.3298 40.2021 43.2082 40.2969C43.0866 40.3917 42.9936 40.5245 42.9316 40.6928C42.8696 40.861 42.8553 41.0815 42.8935 41.354H40.8762C40.8238 40.861 40.8762 40.432 41.0312 40.0647Z" fill="white"/>
<path d="M66.9547 38.6118V46.3219H64.8159V40.451H62.6556C62.6413 40.9203 62.6222 41.3635 62.6008 41.7783C62.5793 42.1931 62.5555 42.5699 62.5293 42.9065C62.503 43.2431 62.4768 43.5512 62.4458 43.8261C62.4172 44.101 62.391 44.3381 62.3671 44.5371C62.3218 44.8832 62.2312 45.1771 62.0953 45.4236C61.9594 45.6701 61.7949 45.8692 61.6089 46.0232C61.4205 46.1773 61.2107 46.291 60.977 46.3645C60.7433 46.438 60.5025 46.4759 60.2521 46.4759C60.1186 46.4759 59.9946 46.4712 59.8802 46.4641C59.7657 46.457 59.6608 46.4451 59.563 46.4309C59.4676 46.4167 59.3794 46.3977 59.3031 46.3764C59.2244 46.355 59.1529 46.3242 59.0861 46.2887V44.6699C59.1601 44.722 59.2364 44.7623 59.3127 44.7908C59.3913 44.8192 59.4772 44.8358 59.5726 44.8358C59.6465 44.8358 59.7228 44.8239 59.7991 44.8026C59.8778 44.7813 59.9445 44.7362 60.0041 44.6699C60.0638 44.6035 60.1138 44.5206 60.1591 44.4163C60.2044 44.3144 60.2331 44.1816 60.2474 44.0205C60.2855 43.691 60.3165 43.3331 60.3427 42.9468C60.369 42.5605 60.3928 42.1457 60.4143 41.6977C60.4357 41.2498 60.4596 40.7686 60.481 40.2543C60.5025 39.74 60.5168 39.1925 60.5263 38.6142H66.9547V38.6118Z" fill="white"/>
<path d="M84.4111 38.6118V40.2425H81.774V46.3219H79.6256V40.2425H76.9884V38.6118H84.4111Z" fill="white"/>
<path d="M45.378 19.9375H45.998C46.3771 19.9375 46.7205 19.992 47.0233 20.0987C47.3261 20.2053 47.586 20.357 47.7982 20.549C48.0105 20.741 48.1726 20.9685 48.2847 21.2316C48.3967 21.4947 48.4516 21.7886 48.4516 22.1109V22.1536C48.4516 22.4688 48.3967 22.7603 48.2847 23.0282C48.1726 23.2936 48.0105 23.5235 47.7982 23.7155C47.586 23.9075 47.3285 24.0544 47.0281 24.1611C46.7276 24.2654 46.3843 24.3223 45.998 24.327H45.378V25.0973H43.8115V24.327H43.1915C42.8053 24.3223 42.4619 24.2654 42.1567 24.1611C41.8515 24.0568 41.5963 23.9075 41.3865 23.7155C41.1767 23.5235 41.0169 23.296 40.9049 23.0282C40.7928 22.7627 40.738 22.4712 40.738 22.1536V22.1109C40.738 21.7886 40.7928 21.4971 40.9049 21.2316C41.0169 20.9685 41.1767 20.741 41.3865 20.549C41.5963 20.357 41.8539 20.2077 42.1567 20.0987C42.4595 19.9897 42.8053 19.9375 43.1915 19.9375H43.8115V19.2644H45.378V19.9375ZM43.4014 21.1297C43.2559 21.1297 43.12 21.151 42.9912 21.1913C42.8625 21.234 42.7504 21.2932 42.6526 21.3738C42.5549 21.4544 42.4786 21.5563 42.4261 21.6772C42.3737 21.7981 42.3474 21.9474 42.3474 22.118V22.1512C42.3474 22.3124 42.3737 22.4546 42.4261 22.5802C42.4786 22.7058 42.5549 22.8054 42.6526 22.8836C42.7504 22.9618 42.8625 23.0234 42.9912 23.0661C43.12 23.1111 43.2559 23.1325 43.4014 23.1325H43.8115V21.125H43.4014V21.1297ZM45.378 23.1348H45.7882C45.9384 23.1348 46.0767 23.1135 46.2031 23.0685C46.3294 23.0234 46.4391 22.9642 46.5345 22.886C46.6299 22.8078 46.7038 22.7082 46.761 22.5826C46.8159 22.457 46.8445 22.3148 46.8445 22.1536V22.1204C46.8445 21.9474 46.8159 21.8004 46.761 21.6796C46.7062 21.5563 46.6299 21.4568 46.5345 21.3762C46.4391 21.2956 46.3294 21.234 46.2031 21.1937C46.0767 21.151 45.9384 21.1321 45.7882 21.1321H45.378V23.1348Z" fill="white"/>
<path d="M55.5023 22.208C55.5023 22.663 55.4284 23.0754 55.2806 23.4452C55.1327 23.8149 54.9253 24.1301 54.6559 24.3932C54.3888 24.6563 54.0693 24.8601 53.6973 25.0047C53.3254 25.1493 52.9176 25.2204 52.4693 25.2204C52.0235 25.2204 51.6157 25.1493 51.2461 25.0047C50.8765 24.8601 50.5594 24.6563 50.2924 24.3932C50.0253 24.1301 49.8155 23.8125 49.6676 23.4452C49.5198 23.0754 49.4459 22.6654 49.4459 22.208V22.1582C49.4459 21.7031 49.5198 21.2907 49.6676 20.921C49.8155 20.5512 50.0229 20.236 50.2924 19.9729C50.5594 19.7098 50.8789 19.506 51.2461 19.3614C51.6157 19.2169 52.0211 19.1458 52.4693 19.1458C52.9152 19.1458 53.3254 19.2169 53.6973 19.3614C54.0693 19.506 54.3888 19.7098 54.6559 19.9729C54.9229 20.236 55.1327 20.5536 55.2806 20.921C55.4284 21.2907 55.5023 21.7031 55.5023 22.1582V22.208ZM53.7951 21.3832C53.7235 21.1604 53.6258 20.9802 53.5066 20.8428C53.3873 20.7029 53.2371 20.601 53.0583 20.5299C52.8795 20.4612 52.6839 20.4256 52.4717 20.4256C52.2595 20.4256 52.0664 20.4612 51.8899 20.5299C51.7135 20.5986 51.5656 20.7029 51.4417 20.8428C51.3177 20.9826 51.2247 21.1627 51.1579 21.3832C51.0911 21.6059 51.0578 21.8643 51.0578 22.1582V22.208C51.0578 22.5019 51.0911 22.7602 51.1579 22.983C51.2247 23.2058 51.32 23.3859 51.4417 23.5234C51.5633 23.6632 51.7135 23.7651 51.8899 23.8362C52.0664 23.905 52.2595 23.9405 52.4717 23.9405C52.6839 23.9405 52.8795 23.905 53.0583 23.8362C53.2371 23.7675 53.3873 23.6632 53.5066 23.5234C53.6258 23.3835 53.7235 23.2034 53.7951 22.983C53.8666 22.7602 53.9048 22.5042 53.9048 22.208V22.1582C53.9024 21.8643 53.8666 21.6059 53.7951 21.3832Z" fill="white"/>
<path d="M58.2182 19.269V21.4662H60.555V19.269H62.112V25.0972H60.555V22.7911H58.2182V25.0972H56.6683V19.269H58.2182Z" fill="white"/>
<path d="M69.3511 19.269V23.7652H70.0879V26.2633H68.6381V25.0972H64.9184V26.2633H63.4687V23.7652H64.1721C64.2389 23.4665 64.2937 23.149 64.3342 22.8124C64.3772 22.4758 64.4105 22.1251 64.4392 21.7553C64.4678 21.3856 64.4868 20.9945 64.4988 20.5821C64.5107 20.1697 64.5155 19.7312 64.5155 19.2714H69.3511V19.269ZM66.051 21.4993C66.0343 21.7885 66.0105 22.0634 65.9795 22.3265C65.9485 22.5896 65.9127 22.8432 65.8698 23.085C65.8269 23.3267 65.7816 23.5519 65.7315 23.7628H67.7917V20.5987H66.082C66.0796 20.9115 66.0677 21.2102 66.051 21.4993Z" fill="white"/>
<path d="M46.2818 28.8374V34.6656H44.7247V30.1694L42.4548 30.1623V34.6656H40.9049V28.8374H46.2818Z" fill="white"/>
<path d="M53.5209 31.7763C53.5209 32.2314 53.447 32.6438 53.2991 33.0135C53.1513 33.3833 52.9439 33.6985 52.6744 33.9616C52.4074 34.2247 52.0879 34.4285 51.7159 34.5731C51.3439 34.7177 50.9362 34.7888 50.4879 34.7888C50.042 34.7888 49.6343 34.7177 49.2647 34.5731C48.8951 34.4285 48.578 34.2247 48.3109 33.9616C48.0439 33.6985 47.834 33.3809 47.6862 33.0135C47.5384 32.6438 47.4644 32.2338 47.4644 31.7763V31.7265C47.4644 31.2715 47.5384 30.8591 47.6862 30.4893C47.834 30.1196 48.0415 29.8044 48.3109 29.5413C48.578 29.2782 48.8975 29.0744 49.2647 28.9298C49.6343 28.7852 50.0396 28.7141 50.4879 28.7141C50.9338 28.7141 51.3439 28.7852 51.7159 28.9298C52.0879 29.0744 52.4074 29.2782 52.6744 29.5413C52.9415 29.8044 53.1513 30.122 53.2991 30.4893C53.447 30.8591 53.5209 31.2715 53.5209 31.7265V31.7763ZM51.8113 30.9515C51.7397 30.7287 51.642 30.5486 51.5227 30.4111C51.4035 30.2713 51.2533 30.1694 51.0745 30.0983C50.8956 30.0295 50.7001 29.994 50.4879 29.994C50.2757 29.994 50.0825 30.0295 49.9061 30.0983C49.7297 30.167 49.5818 30.2713 49.4578 30.4111C49.3338 30.551 49.2408 30.7311 49.1741 30.9515C49.1073 31.1743 49.0739 31.4327 49.0739 31.7265V31.7763C49.0739 32.0702 49.1073 32.3286 49.1741 32.5514C49.2408 32.7741 49.3362 32.9543 49.4578 33.0917C49.5794 33.2316 49.7297 33.3335 49.9061 33.4046C50.0825 33.4733 50.2757 33.5089 50.4879 33.5089C50.7001 33.5089 50.8956 33.4733 51.0745 33.4046C51.2533 33.3359 51.4035 33.2316 51.5227 33.0917C51.642 32.9519 51.7397 32.7718 51.8113 32.5514C51.8828 32.3286 51.9209 32.0726 51.9209 31.7763V31.7265C51.9209 31.4327 51.8828 31.1743 51.8113 30.9515Z" fill="white"/>
<path d="M59.4366 28.8374V30.0272H57.4099V34.6632H55.86V30.0272H53.8332V28.8374H59.4366Z" fill="white"/>
<path d="M65.3763 34.6656H63.8025V33.9001C63.6785 34.0494 63.545 34.1821 63.3972 34.2959C63.2493 34.4096 63.0896 34.5021 62.9155 34.5755C62.7415 34.6467 62.5579 34.7012 62.3623 34.7367C62.1668 34.7723 61.9641 34.7912 61.7519 34.7912C61.523 34.7912 61.3013 34.7533 61.0867 34.6798C60.8721 34.604 60.6789 34.495 60.5096 34.3456C60.3403 34.1987 60.2068 34.0138 60.1114 33.791C60.0161 33.5682 59.9684 33.3146 59.9684 33.0255V32.9828C59.9684 32.7103 60.0137 32.4709 60.1067 32.2623C60.1997 32.0537 60.338 31.876 60.5216 31.729C60.7052 31.5821 60.9341 31.4707 61.2035 31.3925C61.4753 31.3142 61.7805 31.2763 62.1215 31.2763H63.8049V30.7928C63.8001 30.6601 63.7715 30.5392 63.7215 30.4302C63.6714 30.3212 63.6022 30.2311 63.5164 30.1553C63.4306 30.0794 63.3256 30.0225 63.2017 29.9799C63.0777 29.9372 62.9465 29.9182 62.8082 29.9182C62.6914 29.9182 62.565 29.9325 62.4267 29.9633C62.2908 29.9941 62.1668 30.0439 62.0547 30.1126C61.9427 30.1813 61.8545 30.2761 61.7901 30.3946C61.7257 30.5131 61.7066 30.6601 61.7352 30.8307H60.1281C60.09 30.4752 60.1377 30.1647 60.2736 29.8993C60.4095 29.6338 60.605 29.411 60.8554 29.2333C61.1057 29.0555 61.4062 28.9228 61.7519 28.8375C62.0977 28.7521 62.4601 28.7095 62.8416 28.7095C63.2493 28.7095 63.6118 28.7521 63.9265 28.8375C64.2413 28.9228 64.5083 29.0531 64.7253 29.2285C64.9423 29.4039 65.1068 29.622 65.2189 29.8827C65.3309 30.1434 65.3858 30.4515 65.3858 30.807L65.3763 34.6656ZM62.4267 32.2339C62.3099 32.2339 62.1978 32.2457 62.0929 32.2718C61.9856 32.2955 61.895 32.3334 61.8211 32.3832C61.7448 32.4329 61.6875 32.5017 61.6446 32.5917C61.6017 32.6794 61.5826 32.7885 61.5826 32.9165V32.933C61.5826 33.0444 61.6017 33.144 61.6422 33.2317C61.6804 33.3194 61.74 33.3952 61.8187 33.4568C61.8974 33.5185 61.988 33.5635 62.0905 33.5943C62.193 33.6251 62.3075 33.6393 62.4291 33.6393C62.5412 33.6393 62.6556 33.6299 62.7772 33.6133C62.8964 33.5967 63.0181 33.5611 63.1373 33.509C63.2565 33.4568 63.3733 33.381 63.4878 33.2791C63.6022 33.1795 63.7071 33.0468 63.8025 32.8785V32.2339H62.4267Z" fill="white"/>
<path d="M68.4784 28.8374V31.0345H70.8151V28.8374H72.3722V34.6656H70.8151V32.3594H68.4784V34.6656H66.9285V28.8374H68.4784Z" fill="white"/>
<path d="M79.4134 34.6656H77.8635V30.9942H77.8468L75.4934 34.6656H73.9197V28.8374H75.4028V32.5158H75.4195L77.7801 28.8374H79.4134V34.6656Z" fill="white"/>
<path d="M82.5417 28.8374V31.0345H84.8785V28.8374H86.4355V34.6656H84.8785V32.3594H82.5417V34.6656H80.9919V28.8374H82.5417Z" fill="white"/>
<path d="M93.2932 34.6656H91.7194V33.9001C91.5954 34.0494 91.4619 34.1821 91.3141 34.2959C91.1663 34.4096 91.0065 34.5021 90.8324 34.5755C90.6584 34.6467 90.4748 34.7012 90.2792 34.7367C90.0837 34.7723 89.881 34.7912 89.6688 34.7912C89.4399 34.7912 89.2182 34.7533 89.0036 34.6798C88.789 34.604 88.5958 34.495 88.4265 34.3456C88.2572 34.1987 88.1237 34.0138 88.0283 33.791C87.933 33.5682 87.8853 33.3146 87.8853 33.0255V32.9828C87.8853 32.7103 87.9306 32.4709 88.0236 32.2623C88.1166 32.0537 88.2549 31.876 88.4385 31.729C88.6221 31.5821 88.851 31.4707 89.1204 31.3925C89.3922 31.3142 89.6974 31.2763 90.0384 31.2763H91.7218V30.7928C91.7171 30.6601 91.6884 30.5392 91.6384 30.4302C91.5883 30.3212 91.5192 30.2311 91.4333 30.1553C91.3475 30.0794 91.2426 30.0225 91.1186 29.9799C90.9946 29.9372 90.8634 29.9182 90.7251 29.9182C90.6083 29.9182 90.4819 29.9325 90.3436 29.9633C90.2077 29.9941 90.0837 30.0439 89.9717 30.1126C89.8596 30.1813 89.7714 30.2761 89.707 30.3946C89.6426 30.5131 89.6235 30.6601 89.6521 30.8307H88.045C88.0069 30.4752 88.0546 30.1647 88.1905 29.8993C88.3264 29.6338 88.5219 29.411 88.7723 29.2333C89.0226 29.0555 89.3231 28.9228 89.6688 28.8375C90.0146 28.7521 90.377 28.7095 90.7585 28.7095C91.1663 28.7095 91.5287 28.7521 91.8434 28.8375C92.1582 28.9228 92.4252 29.0531 92.6422 29.2285C92.8592 29.4039 93.0237 29.622 93.1358 29.8827C93.2479 30.1434 93.3027 30.4515 93.3027 30.807L93.2932 34.6656ZM90.346 32.2339C90.2292 32.2339 90.1171 32.2457 90.0122 32.2718C89.9049 32.2955 89.8143 32.3334 89.7404 32.3832C89.6641 32.4329 89.6068 32.5017 89.5639 32.5917C89.521 32.6794 89.5019 32.7885 89.5019 32.9165V32.933C89.5019 33.0444 89.521 33.144 89.5615 33.2317C89.5997 33.3194 89.6593 33.3952 89.738 33.4568C89.8167 33.5185 89.9073 33.5635 90.0098 33.5943C90.1123 33.6251 90.2268 33.6393 90.3484 33.6393C90.4605 33.6393 90.5749 33.6299 90.6965 33.6133C90.8157 33.5967 90.9373 33.5611 91.0566 33.509C91.1758 33.4568 91.2926 33.381 91.4071 33.2791C91.5215 33.1795 91.6264 33.0468 91.7218 32.8785V32.2339H90.346Z" fill="white"/>
<path d="M55.0708 42.7192C54.911 42.4111 54.7059 42.1575 54.4556 41.9584C54.2052 41.7593 53.9191 41.6147 53.5972 41.5175C53.2753 41.4227 52.9558 41.3753 52.6387 41.3753C52.4837 41.3753 52.3263 41.3824 52.1689 41.3967C52.0092 41.4109 51.8566 41.4298 51.7087 41.4512C51.5609 41.4725 51.4226 41.4962 51.2938 41.5175C51.1651 41.5389 51.0554 41.5649 50.9672 41.5957L51.1555 40.24H54.9992V38.6094H49.2933L48.8617 42.5959L50.8122 43.0249C50.8861 42.9657 50.9624 42.9159 51.0458 42.8756C51.1269 42.8353 51.2128 42.7974 51.3058 42.7666C51.3987 42.7334 51.4917 42.7073 51.5895 42.6884C51.6849 42.6694 51.7826 42.6599 51.878 42.6599C52.033 42.6599 52.1832 42.6813 52.3334 42.7216C52.4813 42.7618 52.61 42.8258 52.7221 42.9135C52.8318 43.0012 52.9248 43.115 52.9987 43.2548C53.0726 43.3947 53.1084 43.5606 53.1084 43.7502V43.8047C53.1084 43.9967 53.0726 44.1579 52.9987 44.2882C52.9248 44.4209 52.8318 44.53 52.7221 44.62C52.6124 44.7077 52.486 44.7717 52.3454 44.812C52.2047 44.8523 52.0569 44.8736 51.9019 44.8736C51.754 44.8736 51.6038 44.857 51.4536 44.8239C51.301 44.7907 51.1722 44.7291 51.0602 44.6366C50.9505 44.5442 50.8646 44.4162 50.805 44.2503C50.7716 44.1555 50.7263 43.9161 50.7216 43.7929H48.6805C48.671 44.1507 48.764 44.6011 48.8713 44.8831C49.0072 45.2434 49.2194 45.5373 49.5079 45.7695C49.7964 46.0018 50.1517 46.1772 50.5713 46.2981C50.9934 46.419 51.4655 46.4806 51.9901 46.4806C52.5004 46.4806 52.9605 46.419 53.3754 46.2933C53.7879 46.1677 54.1408 45.99 54.427 45.7601C54.7155 45.5278 54.9349 45.2529 55.0875 44.9281C55.2377 44.6058 55.314 44.2479 55.314 43.8592V43.8142C55.3092 43.3947 55.2305 43.0273 55.0708 42.7192Z" fill="white"/>
<path d="M74.0937 43.7977C74.077 43.9802 74.0294 44.1343 73.9531 44.2599C73.8529 44.4211 73.7218 44.5491 73.5596 44.6391C73.3975 44.7316 73.2186 44.7932 73.0231 44.8264C72.8276 44.8595 72.6368 44.8761 72.4532 44.8761C72.2172 44.8761 71.9907 44.8406 71.7785 44.7718C71.5639 44.7031 71.3755 44.5941 71.2133 44.4471C71.0512 44.3002 70.9224 44.1035 70.8247 43.857C70.7293 43.6105 70.6816 43.3166 70.6816 42.9705V42.9255H76.4877V42.4302C76.4877 41.8424 76.3899 41.3043 76.1944 40.8161C75.9989 40.3279 75.7247 39.906 75.3742 39.5505C75.0237 39.1949 74.5992 38.92 74.1056 38.7304C73.6097 38.5384 73.0613 38.4436 72.4556 38.4436C71.8714 38.4436 71.3349 38.5384 70.8437 38.7304C70.3526 38.9224 69.9305 39.1902 69.5752 39.541C69.22 39.8894 68.9434 40.3089 68.7431 40.7971C68.5428 41.2854 68.4426 41.8305 68.4426 42.4325V42.4989C68.4426 43.1009 68.5428 43.646 68.7431 44.1343C68.9434 44.6225 69.22 45.042 69.5752 45.3905C69.9305 45.7389 70.3526 46.0091 70.8437 46.1987C71.3349 46.3907 71.8714 46.4855 72.4556 46.4855C72.973 46.4855 73.4666 46.4286 73.934 46.3148C74.4037 46.201 74.8138 46.0256 75.1691 45.7863C75.5244 45.5469 75.8057 45.2483 76.018 44.888C76.2039 44.5704 76.2993 44.2054 76.316 43.7977H74.0937ZM70.7007 41.6836C70.7007 41.3897 70.7484 41.1408 70.8437 40.9346C70.9391 40.7284 71.0703 40.5601 71.2324 40.4274C71.3946 40.2947 71.5829 40.1999 71.7975 40.1406C72.0121 40.0814 72.2291 40.0529 72.4509 40.0529C72.6798 40.0529 72.9015 40.0814 73.1161 40.1406C73.3307 40.1999 73.5191 40.2947 73.6812 40.4274C73.8434 40.5601 73.9745 40.7284 74.0746 40.9346C74.1748 41.1408 74.2249 41.3897 74.2249 41.6836V41.7168H70.7007V41.6836Z" fill="white"/>
<path d="M13.7701 19.269H1.95762L14.4401 46.3478H26.2526L13.7701 19.269Z" fill="white"/>
<path d="M32.0229 3.85156L16.0067 38.5953H27.8191L43.8353 3.85156H32.0229Z" fill="white"/>
</g>
<defs>
<clipPath id="clip0_93_26">
<rect width="98" height="52.8539" fill="white"/>
</clipPath>
</defs>
</svg>
