<svg width="68" height="53" viewBox="0 0 68 53" fill="none" xmlns="http://www.w3.org/2000/svg">
<path fill-rule="evenodd" clip-rule="evenodd" d="M0 8.87124L68 0L64.5424 53L5.07119 51.4077L0 8.87124ZM44.9247 13.3563C45.4028 13.478 45.8477 13.7025 46.2276 14.0135C46.6076 14.3244 46.9134 14.714 47.1233 15.1547C47.3332 15.5953 47.4419 16.0762 47.4418 16.563V32.0213C47.4418 32.8949 47.179 33.7488 46.6867 34.4751C46.1944 35.2014 45.4946 35.7675 44.6759 36.1018C43.8571 36.4361 42.9562 36.5235 42.0871 36.3531C41.2179 36.1827 40.4196 35.7621 39.7929 35.1444C39.1663 34.5267 38.7396 33.7397 38.5667 32.883C38.3938 32.0262 38.4825 31.1382 38.8217 30.3311C39.1608 29.5241 39.7351 28.8343 40.4719 28.349C41.2087 27.8637 42.075 27.6047 42.9612 27.6047C43.7506 27.6109 44.524 27.8247 45.2015 28.2241V20.7588L29.5193 23.6517V35.3338C29.5193 36.2074 29.2566 37.0613 28.7642 37.7876C28.2719 38.5139 27.5721 39.08 26.7534 39.4143C25.9347 39.7486 25.0338 39.836 24.1646 39.6656C23.2954 39.4952 22.4971 39.0746 21.8705 38.4569C21.2438 37.8392 20.8171 37.0522 20.6442 36.1955C20.4713 35.3387 20.56 34.4507 20.8992 33.6436C21.2383 32.8366 21.8126 32.1468 22.5494 31.6615C23.2863 31.1762 24.1525 30.9172 25.0387 30.9172C25.8276 30.9217 26.601 31.1337 27.279 31.5311V19.0485C27.2785 18.2753 27.5523 17.5262 28.0531 16.9311C28.5539 16.336 29.2502 15.9323 30.0212 15.7901L43.4619 13.309C43.9471 13.2183 44.4466 13.2345 44.9247 13.3563Z" fill="white"/>
</svg>
