<svg width="800" height="800" viewBox="0 0 800 800" fill="none" xmlns="http://www.w3.org/2000/svg">
<path d="M566.667 100L338.667 266.667H200C191.159 266.667 182.681 270.179 176.43 276.43C170.179 282.681 166.667 291.159 166.667 300V500C166.667 508.841 170.179 517.319 176.43 523.57C182.681 529.821 191.159 533.333 200 533.333H338.667L566.667 700V100Z" fill="#2CA9BC"/>
<path d="M566.667 700L338.667 533.333H200C191.159 533.333 182.681 529.821 176.43 523.57C170.179 517.319 166.667 508.841 166.667 500V300C166.667 291.159 170.179 282.681 176.43 276.43C182.681 270.179 191.159 266.667 200 266.667H338.667L566.667 100V700Z" stroke="black" stroke-width="66.6667" stroke-linecap="round" stroke-linejoin="round"/>
</svg>
