<svg width="107" height="110" viewBox="0 0 107 110" fill="none" xmlns="http://www.w3.org/2000/svg">
<path d="M0.0802078 55.1542C-1.60451 25.4623 23.4814 -0.102361 53.5804 0.00030818C80.7002 0.0824435 107.245 21.0475 106.998 55.4622C106.793 85.6264 83.556 110 53.0872 110C22.639 109.979 -1.54288 84.1069 0.0802078 55.1542ZM32.5419 99.8152C38.3767 85.3389 44.0884 71.1295 50.1492 56.0577C34.5759 57.8441 19.9476 59.5073 4.90838 61.2322C8.46273 78.6859 16.989 91.3964 32.5419 99.8152ZM38.0481 102.094C54.8336 107.228 69.2359 104.476 83.2889 94.2506C74.2284 82.7311 65.4556 71.6018 56.0253 59.5895C49.7795 74.3944 44.0884 87.8235 38.0481 102.094ZM23.8923 16.6532C10.5789 25.9961 2.87439 43.7373 6.32602 56.5915C20.1325 54.6203 34.0006 52.649 48.896 50.5135C40.2464 38.7887 32.2131 27.9058 23.8923 16.6532ZM89.0827 88.9939C98.7596 76.9611 103.177 64.6408 102.108 49.5484C88.8567 50.5135 76.4268 52.2794 63.1134 54.9694C72.0301 66.6531 80.125 77.2896 89.0827 88.9939ZM60.0111 49.2404C74.8448 46.879 87.9116 46.6121 100.711 43.9222C96.1092 29.877 89.4115 18.5218 75.5228 11.6841C70.3659 24.2097 65.5583 35.8318 60.0111 49.2404ZM69.729 8.91199C55.1213 3.71693 42.2804 5.01056 29.0903 12.2385C37.9453 23.1625 46.2867 33.4088 55.3062 44.5176C60.3809 31.9715 64.983 20.6163 69.729 8.91199Z" fill="#AFA9B4"/>
</svg>
