<svg width="220" height="149" viewBox="0 0 220 149" fill="none" xmlns="http://www.w3.org/2000/svg">
<path opacity="0.5" d="M211.726 62.23C209.586 63.1545 207.386 63.9752 205.307 65.0256C188.893 73.3266 172.495 81.6759 156.091 89.9942C142.242 97.0098 128.394 104.026 114.53 111.015C104.048 116.295 93.5402 121.532 83.0291 126.782C70.308 133.135 57.5869 139.488 44.8545 145.802C42.5445 146.951 40.2035 148.107 37.2122 147.517C34.8842 143.824 32.3922 140.007 30.0298 136.115C22.7794 124.176 15.5758 112.198 8.3513 100.244C8.21289 100.024 8.1004 99.789 7.95335 99.5743C2.29938 91.3584 3.67575 92.3849 7.25258 85.2251C13.0159 73.6679 18.9678 62.1977 24.8738 50.7079C26.9039 46.758 29.419 45.5249 33.4969 47.3777C36.7522 48.8639 39.8582 50.9896 42.5282 53.3785C45.2133 55.7933 47.4317 58.7773 49.5756 61.7121C50.901 63.5287 52.0245 63.9175 54.1024 62.9252C59.7459 60.2433 65.5181 57.8443 71.1978 55.2452C81.7394 50.4269 92.2496 45.5345 102.776 40.6903C121.705 31.9745 140.64 23.2674 159.584 14.5776C161.442 13.7238 163.363 13.0182 165.671 12.0658C164.878 10.6913 164.071 9.77371 163.807 8.7163C163.479 7.43011 163.116 5.78378 163.643 4.71915C164.376 3.23513 166.162 3.63333 167.513 4.15604C169.569 4.96287 171.633 5.82291 173.571 6.88284C181.511 11.2542 188.131 17.3908 195.163 23.0018C204.59 30.5262 210.552 40.593 216.158 50.9226C217.365 53.1533 217.759 55.8308 218.529 58.3024C216.247 59.6199 213.991 60.9225 211.726 62.23ZM39.2447 116.802C65.705 104.741 91.7503 92.9194 117.741 81.0028C143.754 69.0849 169.926 57.5242 196.415 45.1127C195.125 43.2179 194.443 41.6175 193.267 40.579C184.186 32.5553 174.958 24.6969 165.897 16.6495C164.116 15.0615 162.659 14.9924 160.657 15.9174C152.846 19.5165 144.988 22.9932 137.157 26.5576C124.003 32.5612 110.88 38.6166 97.7214 44.6115C83.6227 51.034 69.5253 57.4787 55.364 63.7529C51.9142 65.2836 50.1466 67.572 49.4017 71.2525C47.5959 80.2021 45.4878 89.1073 43.4875 98.0194C42.1219 104.098 40.7428 110.174 39.2447 116.802ZM5.39465 92.4875C17.0058 110.542 27.3308 128.925 38.7634 146.391C97.9684 116.485 156.735 86.7982 215.38 57.181C214.876 49.5997 206.871 39.0294 202.21 35.2082C200.653 33.9286 198.717 32.0726 196.644 33.5118C194.721 34.8525 195.362 37.3407 195.837 39.3605C196.391 41.7377 197.21 44.0543 197.899 46.3653C192.931 49.0603 40.748 119.346 36.7155 119.588C34.729 116.147 32.67 112.541 30.5765 108.955C26.6702 102.288 21.4402 96.9629 14.6818 93.1423C11.9263 91.5635 9.16403 90.9913 5.39465 92.4875ZM37.3864 114.601C37.8042 113.887 38.0864 113.598 38.1554 113.258C41.5007 97.5528 44.8511 81.856 48.101 66.125C48.3045 65.12 47.9791 63.7979 47.4587 62.8766C44.5735 57.7995 40.6106 53.6903 35.6532 50.5934C34.4501 49.8472 33.1028 49.2304 31.7343 48.8563C29.0691 48.1129 28.1332 48.6878 26.9959 51.2693C26.4726 52.459 25.8811 53.6304 25.2796 54.7845C19.6742 65.3976 14.0502 75.9984 8.44985 86.6202C7.94773 87.5671 7.57968 88.5864 7.08693 89.6893C13.0978 89.6999 14.601 90.3073 19.508 93.4564C25.8615 97.534 29.969 103.531 33.9905 109.658C35.0303 111.259 36.1428 112.806 37.3864 114.601ZM201.637 31.7006C197.663 28.1512 194.096 24.5281 190.094 21.4679C184.005 16.811 177.666 12.4598 171.308 8.15448C169.588 6.99206 167.658 5.68571 165.23 6.21149C166.202 10.3301 166.697 11.1277 169.636 13.4424C173.11 16.1856 176.584 18.9288 180.07 21.6533C184.767 25.3382 189.474 29.0181 194.18 32.6981C194.244 32.4303 194.309 32.1626 194.365 31.8999C196.588 31.8381 198.825 31.7799 201.637 31.7006ZM165.582 13.6275C165.478 13.987 165.375 14.3465 165.271 14.706C174.631 22.5341 183.991 30.3622 193.578 38.3824C194.026 36.3834 194.191 34.9737 192.52 33.6563C184.373 27.1909 176.322 20.6125 168.175 14.1472C167.569 13.6558 166.459 13.7895 165.582 13.6275Z" fill="#204D37"/>
</svg>
