<svg width="118" height="147" viewBox="0 0 118 147" fill="none" xmlns="http://www.w3.org/2000/svg">
<path opacity="0.5" d="M35.2572 145.607C34.415 143.187 33.5137 141.03 32.902 138.795C26.4179 115.223 19.9611 91.6573 13.5373 68.0693C9.55807 53.4599 5.67535 38.8247 1.73231 24.2056C0.271324 18.8013 1.11408 17.266 6.748 15.9508C14.0958 14.2284 21.476 12.6268 28.841 11.0165C41.8866 8.16917 54.9411 5.30655 68.0127 2.55604C70.7659 1.97393 73.6047 1.6152 76.4263 1.48152C80.0741 1.295 81.7189 2.65651 82.6424 5.90984C88.1659 25.3177 93.8013 44.7085 99.2042 64.1487C104.734 84.0607 110.043 104.019 115.427 123.969C116.04 126.256 116.583 128.574 116.897 130.901C117.258 133.553 115.894 135.073 113.23 135.359C89.6644 137.887 66.0983 140.364 42.5535 143.016C40.2036 143.27 37.9878 144.603 35.2572 145.607ZM73.9012 132.957C86.3848 131.583 98.4782 130.248 111.122 128.844C107.004 115.504 103.005 102.507 98.9738 89.4419C87.4209 91.5391 76.3602 93.5433 64.8556 95.6276C67.0827 108.282 70.9421 120.369 73.9012 132.957ZM87.6169 49.3737C76.3815 52.1249 65.6407 54.7436 54.7068 57.414C57.8316 69.0757 60.8655 80.3988 64.0227 92.1815C75.4011 90.1569 86.5286 88.1607 97.4871 86.2098C94.116 73.6287 90.9167 61.6887 87.6169 49.3737ZM76.708 11.7009C65.0125 14.1345 53.8937 16.4525 42.8441 18.7391C45.7225 29.4814 48.4323 39.5947 51.207 49.9499C62.9696 47.7187 74.2674 45.5861 86.0301 43.3549C82.87 32.6232 79.8615 22.4084 76.708 11.7009ZM56.396 97.0127C47.1457 98.5837 38.551 100.044 29.6242 101.567C32.8818 113.725 35.9904 125.326 39.154 137.133C48.4477 135.965 57.5056 134.835 67.0623 133.635C63.4323 121.15 59.9797 109.278 56.396 97.0127ZM47.9913 50.5912C44.8234 39.9264 41.7907 29.7181 38.6811 19.2711C28.7721 20.9408 19.1992 22.0796 9.86542 24.5935C12.8249 35.6383 15.6644 46.2355 18.5525 57.0141C28.311 54.8791 37.8009 52.803 47.9913 50.5912ZM55.5899 93.7149C52.4619 82.0411 49.4344 70.7423 46.3874 59.3709C37.6502 61.1675 29.118 62.9091 20.2963 64.7283C23.0267 76.366 25.3157 87.7072 28.9472 98.896C37.9517 97.1315 46.5186 95.4714 55.5899 93.7149Z" fill="#702C2B"/>
</svg>
