<svg width="175" height="149" viewBox="0 0 175 149" fill="none" xmlns="http://www.w3.org/2000/svg">
<g opacity="0.5">
<path d="M161.919 37.1746C153.97 41.9537 146.1 46.5944 138.327 51.4004C133.835 54.1786 129.512 57.2306 125.112 60.1542C124.689 60.4378 124.035 60.6131 123.852 61.0024C121.914 65.1068 117.915 66.9871 114.66 69.6676C112.545 71.4047 111.095 73.5271 109.784 76.0062C107.945 79.4884 105.688 82.9974 102.813 85.6292C99.7603 88.4261 97.4863 91.5142 95.847 95.1875C92.6902 102.236 87.3076 107.359 81.3564 111.985C80.5484 112.617 79.685 113.359 78.7283 113.594C74.7186 114.604 73.1716 117.71 71.6846 121.119C70.6045 123.59 69.086 125.89 67.5991 128.15C65.8577 130.808 65.3484 133.466 66.3851 136.582C67.2306 139.143 67.6011 141.873 68.0726 144.545C68.2107 145.338 67.9715 146.189 67.8633 147.569C66.9901 146.729 66.3921 146.399 66.1745 145.904C65.7108 144.848 65.2259 143.712 65.1467 142.584C64.8535 138.12 62.1468 136.026 58.1381 135.217C55.4981 134.68 52.8317 134.203 50.151 133.911C37.4505 132.494 24.782 130.921 12.6459 126.577C11.3411 126.107 9.95532 125.851 8.44772 125.457C8.17156 130.531 11.7012 134.745 11.1622 139.592C10.8736 139.743 10.595 139.893 10.3064 140.044C9.68535 139.392 8.79482 138.843 8.49021 138.063C7.20258 134.684 5.87991 131.294 4.97612 127.802C3.51309 122.184 2.28525 116.491 1.08979 110.801C0.361249 107.368 1.2979 104.086 2.65588 100.988C4.15016 97.5659 7.41825 95.6902 10.5307 94.4626C15.4307 92.5326 19.0683 89.8558 21.5465 85.0322C22.7194 82.7498 23.3054 80.9332 23.2907 78.3413C23.262 72.7639 24.1951 67.2479 28.601 63.0779C33.8445 58.1091 39.07 53.1131 44.2982 48.1271C47.8586 44.7263 51.8466 43.3173 56.9633 43.8612C59.9804 44.1804 63.2089 42.7515 66.3096 41.9951C67.296 41.7521 68.148 40.9281 69.1358 40.7697C73.1766 40.1126 76.8058 38.8316 79.5667 35.5386C80.2495 34.7174 81.5477 34.3695 82.6231 33.9431C88.1432 31.7512 93.4088 29.0849 98.3064 25.7194C99.0419 25.2138 99.8575 24.7293 100.705 24.5235C103.545 23.8262 104.69 24.8069 104.729 27.807C104.732 28.2955 104.746 28.7813 104.758 29.3419C106.946 29.6598 108.96 29.9606 110.916 30.245C113.379 27.9788 115.785 25.7808 117.941 23.7988C115.462 20.0162 112.717 16.592 110.817 12.7501C107.521 6.07993 109.218 3.01879 116.618 2.29141C125.342 1.43257 134.101 1.02178 142.851 0.496501C144.377 0.406582 145.949 0.644908 147.469 0.886587C151.987 1.61232 154.819 4.21512 156.172 8.62929C161.314 25.443 166.539 42.2453 171.731 59.0458C171.884 59.5367 172.256 60.054 172.174 60.5015C172.079 61.0589 171.721 61.825 171.296 61.9815C170.888 62.1228 169.958 61.7443 169.742 61.3341C169.214 60.3159 168.945 59.1539 168.605 58.0429C166.608 51.6205 164.621 45.1955 162.624 38.7731C162.451 38.2874 162.205 37.8428 161.919 37.1746ZM96.896 81.502L96.984 81.5529C99.2277 76.8453 102.544 73.0098 106.507 69.6821C110.653 66.2093 112.11 61.4573 112.821 56.2241C107.855 59.9695 103.175 63.9471 98.6109 68.0424C95.5643 70.7843 92.7435 73.7742 89.7121 76.5333C88.3545 77.7694 85.6455 77.5697 84.4163 76.431C82.6814 74.832 82.567 73.5329 83.9925 71.3211C85.081 69.6358 86.1947 67.965 87.2959 66.287C88.8939 69.912 84.5303 71.1877 84.2056 74.0194C86.3759 76.7676 87.3738 77.0428 89.7717 74.9322C91.9636 73.0044 93.8564 70.7526 95.8564 68.6635C93.3478 64.7718 93.3505 64.7817 89.4341 65.863C88.6935 66.0721 87.9449 66.2514 87.189 66.4433C88.2453 65.6283 89.2783 64.7664 90.373 64.0157C91.0913 63.5253 92.0388 63.3353 92.6989 62.7861C95.1604 60.7541 97.5457 58.6363 99.9437 56.5257C102.187 54.5522 104.423 52.5489 106.651 50.5582C105.176 50.2086 103.99 50.3777 102.922 50.8339C97.9676 52.9168 90.4296 51.3834 86.7968 47.5376C85.6964 46.3643 85.2417 45.1032 86.1265 43.7278C86.7931 42.6875 87.7541 41.8342 88.5795 40.9109C87.953 42.2597 87.3239 43.5985 86.7193 44.9094C91.7987 49.0803 94.2638 50.1539 98.4912 50.0744C102.358 49.9958 102.756 49.6976 103.715 45.9832C103.904 45.2622 104.096 44.5513 104.294 43.7853C101.748 42.4465 99.337 41.22 96.9628 39.9306C94.1315 38.402 91.4443 37.7284 89.2041 40.9032C89.0946 41.0495 88.7356 41.0181 88.4825 41.0646C91.1909 36.7431 92.1454 36.381 96.51 38.2009C97.6932 38.6923 98.8027 39.3844 99.9695 39.9335C101.32 40.5718 102.699 41.1597 104.203 41.8203C103.702 36.3803 103.24 31.3657 102.722 25.7489C100.888 26.5916 99.5038 27.1752 98.1637 27.8428C94.2573 29.7938 90.3892 31.8089 86.4801 33.75C84.7452 34.6085 82.5678 34.926 81.2578 36.1812C77.6855 39.6172 73.4948 41.538 68.7633 42.5504C68.4012 42.6262 68.1189 42.9997 67.7602 43.1277C64.1316 44.4511 60.5184 46.2278 56.5515 45.5353C52.2151 44.7717 48.6438 45.9521 45.5684 48.9038C40.6346 53.6407 35.6704 58.3432 30.8961 63.2395C25.8454 68.4121 24.4272 74.8134 25.332 81.837C25.4358 82.6602 25.7556 83.4575 26.0162 84.4302C29.1702 81.4149 29.7143 81.5032 31.8627 85.002C32.4491 85.9619 33.1096 86.8807 33.6588 87.7016C37.1482 87.4049 40.3465 86.9735 43.5534 86.8908C51.0417 86.6928 54.6336 89.7517 56.2896 97.0421C57.4239 102.068 58.9202 107.018 60.2899 112.13C62.557 112.544 64.8125 113.152 67.1003 113.326C70.3976 113.581 73.8423 114.307 76.9134 112.41C79.317 110.915 81.7978 109.431 83.8431 107.51C87.9507 103.654 92.1723 99.9062 94.3016 94.3356C95.5687 91.0173 97.3243 87.7384 100.519 85.6695C103.904 83.4754 106.172 80.2079 107.663 76.6916C109.308 72.8038 111.805 69.9538 115.094 67.5619C116.552 66.5011 117.981 65.3734 119.284 64.1307C120.256 63.2 120.998 62.0438 121.992 60.7987C116.6 59.7011 113.671 61.2197 111.398 65.382C110.322 67.3513 108.648 69.0337 107.13 70.7386C104.998 73.1289 102.78 75.436 100.578 77.7602C99.4123 79.0405 98.1439 80.2528 96.896 81.502ZM26.9635 126.932C33.2663 128.137 40.0359 129.419 47.2676 130.8C44.3607 119.951 41.6426 109.807 38.858 99.415C36.0928 99.9963 33.551 100.539 30.5129 101.172C27.8176 99.5966 26.3038 96.5235 25.057 93.0597C22.8768 93.6439 20.8353 94.1909 18.3677 94.8521C21.2214 105.502 24.022 115.954 26.9635 126.932ZM121.458 38.8671C121.328 39.5721 121.179 39.8463 121.247 40.062C122.59 44.6383 121.286 48.3709 117.811 51.5361C115.505 53.6327 113.926 56.1835 114.058 59.3715C116.335 59.0699 118.495 58.491 120.62 58.613C122.344 58.7043 123.549 58.2857 124.811 57.2456C133.3 50.2793 142.74 44.7604 152.214 39.2858C154.486 37.9748 156.658 36.4885 159.3 34.8126C150.298 32.0969 141.877 29.5661 133.348 26.9898C133.168 31.7507 131.502 34.41 127.058 36.2178C125.043 37.0236 123.142 38.0543 121.458 38.8671ZM160.96 32.921C158.184 24.186 155.756 16.3151 153.153 8.50199C152.279 5.87445 150.085 4.22819 147.43 3.83321C144.453 3.3862 141.386 3.47406 137.694 3.29304C140.657 12.1695 143.378 20.3022 146.115 28.4945C150.861 29.9143 155.501 31.2985 160.96 32.921ZM122.593 4.84996C122.578 5.38608 122.472 5.7866 122.575 6.13135C123.995 10.9532 125.385 15.783 126.93 20.5603C127.193 21.3835 128.06 22.1194 128.818 22.6503C132.392 25.1287 136.688 25.7011 140.729 26.9057C141.502 27.1348 142.345 27.1109 143.53 27.2509C140.856 19.2545 138.339 11.6842 135.736 3.91345C131.294 4.22082 126.968 4.52875 122.593 4.84996ZM97.5584 67.0478C99.7545 65.2147 101.851 63.5253 103.884 61.7571C108.34 57.8929 112.907 54.1266 117.168 50.0487C120.953 46.4174 121.057 44.4641 118.672 39.8476C113.076 40.0493 112.029 35.6276 110.52 31.5425C108.754 31.2925 107.055 31.0562 105.001 30.766C105.159 33.6919 105.252 36.103 105.411 38.518C105.52 40.2335 106.182 41.3965 108.15 41.6457C110.338 41.9213 111.76 43.4232 113.094 45.4276C107.977 53.0113 99.7704 57.3061 93.4783 63.673C94.9502 64.885 96.1117 65.8504 97.5584 67.0478ZM43.246 104.335C42.9898 104.489 42.721 104.635 42.4648 104.789C44.7813 113.434 47.0978 122.08 49.3877 130.626C53.5984 131.317 57.7219 131.999 62.4642 132.771C60.7142 126.24 59.0679 120.096 57.3365 113.634C56.3121 113.696 55.1381 113.595 54.0678 113.882C51.5678 114.541 49.7592 113.579 48.3378 111.684C47.4946 110.558 46.8626 109.27 46.0637 108.112C45.1654 106.821 44.1885 105.593 43.246 104.335ZM7.26885 121.89C12.8064 123.172 18.2613 124.423 24.2736 125.812C21.7716 116.078 19.7277 106.786 16.2939 97.578C15.1836 98.8648 14.5903 100.258 13.9547 101.652C11.8352 106.347 9.78843 111.077 7.52341 115.705C6.55959 117.697 6.19305 119.54 7.26885 121.89ZM57.5872 110.843C56.3877 106.367 55.2327 102.017 54.0579 97.672C52.7235 92.7316 50.0415 90.7694 44.0071 90.4076C42.5396 90.3221 41.0446 90.8077 39.1653 91.0879C40.3035 94.0276 40.288 96.7446 42.4194 99.1097C44.6726 101.612 46.1543 104.843 47.8901 107.793C49.9082 111.241 51.0406 111.821 55.1522 111.23C55.7681 111.15 56.3958 111.035 57.5872 110.843ZM130.766 27.8198C130.004 24.7368 126.179 22.9105 122.59 23.9042C119.07 24.8793 116.503 27.4289 113.587 29.391C113.038 29.7614 112.701 30.6817 112.596 31.4012C112.134 34.3548 114.075 36.3243 115.967 37.9555C117.392 39.1908 119.364 38.6623 121.078 37.7668C123.017 36.7579 124.966 35.7463 126.985 34.918C129.936 33.6806 131.52 30.873 130.766 27.8198ZM119.694 22.9674C121.607 22.4549 123.539 21.9371 125.581 21.3901C123.795 15.8365 122.068 10.5013 120.253 4.83862C117.957 5.02844 115.942 5.1214 113.956 5.39833C112.064 5.67121 111.201 6.84935 111.962 8.69863C112.882 10.9416 113.9 13.158 115.062 15.2724C116.46 17.834 118.062 20.2875 119.694 22.9674ZM6.08422 115.527C9.15592 108.597 11.9497 102.295 14.8343 95.7776C5.74939 98.2225 1.83365 105.57 6.08422 115.527ZM64.2191 126.556C66.4034 122.737 68.2062 119.594 70.115 116.253C67.063 115.645 64.2584 115.088 60.969 114.427C62.1074 118.675 63.0542 122.208 64.2191 126.556ZM30.4954 99.7195C33.0225 99.0424 34.7468 98.5804 37.0162 97.9723C35.0826 95.6712 33.3979 93.6652 31.7742 91.7279C29.9805 92.2085 28.5534 92.5909 26.5912 93.1167C28.0777 95.612 29.3442 97.762 30.4954 99.7195ZM111.882 45.146C110.255 44.1882 108.839 43.3442 106.996 42.2529C106.115 44.5953 105.444 46.371 104.711 48.3121C107.912 48.9224 109.971 48.0835 111.882 45.146ZM29.1221 82.3853C27.862 85.0953 25.6935 86.3572 25.8585 89.1534C27.7513 88.6462 29.4063 88.2028 31.3685 87.677C30.65 85.9865 30.0278 84.5362 29.1221 82.3853ZM24.597 85.5552C24.2926 85.3708 23.9883 85.1864 23.684 85.002C22.6358 86.719 21.5975 88.4334 20.1814 90.7597C22.0247 90.2658 23.0851 89.9816 24.2248 89.6763C24.3547 88.2585 24.4808 86.9055 24.597 85.5552ZM38.1251 96.6007C37.4243 91.448 37.4243 91.448 35.2216 92.0276C36.0452 93.3176 36.8562 94.6003 38.1251 96.6007Z" fill="#061549"/>
<path d="M66.9469 59.1854C58.1973 66.8954 49.4353 74.5981 40.1411 82.7834C40.3212 81.4177 40.1509 80.3902 40.5798 79.914C42.2545 78.0522 43.901 76.0067 45.9676 74.6667C51.326 71.1909 56.4231 67.4452 60.9231 62.882C62.5646 61.2097 64.1646 59.3041 66.9469 59.1854Z" fill="#061549"/>
<path d="M97.1214 81.1333C96.5063 82.0708 96.0871 83.2606 95.2579 83.9181C91.707 86.7523 89.3318 90.5014 87.0283 94.3183C84.8508 97.9274 82.1836 101.025 78.1411 102.783C79.3278 101.344 80.5553 99.9381 81.6857 98.449C84.3793 94.9302 86.838 91.2132 89.7466 87.898C91.9421 85.3942 94.6927 83.4056 97.1976 81.1781C97.2103 81.1856 97.1214 81.1333 97.1214 81.1333Z" fill="#061549"/>
<path d="M71.4967 89.6261C68.3978 92.7834 65.3043 95.961 62.1584 99.0657C61.6459 99.5727 60.8592 99.7943 59.7526 99.6015C61.7004 97.8074 63.6481 96.0133 65.55 94.2533C64.4166 90.3924 61.7391 89.3809 58.2674 89.5065C61.2331 87.2874 63.6068 88.1084 66.8345 92.3215C68.4222 91.4394 70.01 90.5573 71.5902 89.688L71.4967 89.6261Z" fill="#061549"/>
<path d="M52.6252 53.4816C49.7534 56.6133 47.0723 59.5442 43.8117 63.0901C45.6253 59.1838 49.6479 54.91 52.6252 53.4816Z" fill="#061549"/>
<path d="M70.836 89.2104C73.1892 86.6477 75.9874 84.635 79.6605 83.745C76.6896 85.5496 73.7285 87.3515 70.7576 89.1561L70.836 89.2104Z" fill="#061549"/>
<path d="M73.0353 54.1923C73.5598 51.5057 74.8939 49.3999 77.7982 48.7856C76.2138 50.587 74.6295 52.3883 73.0353 54.1923Z" fill="#061549"/>
</g>
</svg>
