<svg width="386" height="182" viewBox="0 0 386 182" fill="none" xmlns="http://www.w3.org/2000/svg">
<rect width="386" height="182" fill="white"/>
<path d="M164.87 153.79C165.52 152.24 166.47 150.96 167.73 149.96C168.99 148.95 170.5 148.2 172.26 147.71C174.03 147.21 175.95 146.97 178.02 146.97C180.09 146.97 181.95 147.23 183.57 147.76C185.2 148.29 186.57 149.01 187.68 149.94C188.79 150.87 189.65 151.99 190.24 153.31C190.83 154.63 191.12 156.06 191.12 157.61V157.8C191.12 159.38 190.78 160.85 190.1 162.21C189.42 163.57 188.42 164.88 187.1 166.14C185.78 167.4 184.17 168.6 182.27 169.77C180.37 170.93 178.19 172.12 175.74 173.33H191.12V180.21H164.35V172.82C166.24 171.95 167.99 171.12 169.6 170.33C171.21 169.54 172.67 168.76 173.97 167.98C175.27 167.21 176.42 166.45 177.43 165.7C178.44 164.96 179.27 164.21 179.94 163.45C180.61 162.69 181.11 161.9 181.45 161.08C181.79 160.26 181.96 159.37 181.96 158.41V158.22C181.96 157.45 181.85 156.78 181.64 156.22C181.42 155.66 181.11 155.2 180.71 154.82C180.31 154.45 179.84 154.18 179.32 154.01C178.79 153.84 178.22 153.75 177.6 153.75C176.95 153.75 176.32 153.82 175.7 153.96C175.08 154.1 174.51 154.37 174 154.77C173.49 155.17 173.1 155.73 172.84 156.44C172.58 157.15 172.52 158.08 172.68 159.23H164.22C164 157.15 164.22 155.34 164.87 153.79Z" fill="#00ACA8"/>
<path d="M273.59 147.66V180.19H264.62V155.42H255.56C255.5 157.4 255.42 159.27 255.33 161.02C255.24 162.77 255.14 164.36 255.03 165.78C254.92 167.2 254.81 168.5 254.68 169.66C254.56 170.82 254.45 171.82 254.35 172.66C254.16 174.12 253.78 175.36 253.21 176.4C252.64 177.44 251.95 178.28 251.17 178.93C250.38 179.58 249.5 180.06 248.52 180.37C247.54 180.68 246.53 180.84 245.48 180.84C244.92 180.84 244.4 180.82 243.92 180.79C243.44 180.76 243 180.71 242.59 180.65C242.19 180.59 241.82 180.51 241.5 180.42C241.17 180.33 240.87 180.2 240.59 180.05V173.22C240.9 173.44 241.22 173.61 241.54 173.73C241.87 173.85 242.23 173.92 242.63 173.92C242.94 173.92 243.26 173.87 243.58 173.78C243.91 173.69 244.19 173.5 244.44 173.22C244.69 172.94 244.9 172.59 245.09 172.15C245.28 171.72 245.4 171.16 245.46 170.48C245.62 169.09 245.75 167.58 245.86 165.95C245.97 164.32 246.07 162.57 246.16 160.68C246.25 158.79 246.35 156.76 246.44 154.59C246.53 152.42 246.59 150.11 246.63 147.67H273.59V147.66Z" fill="#00ACA8"/>
<path d="M346.8 147.66V154.54H335.74V180.19H326.73V154.54H315.67V147.66H346.8Z" fill="#00ACA8"/>
<path d="M183.1 68.87H185.7C187.29 68.87 188.73 69.1 190 69.55C191.27 70 192.36 70.64 193.25 71.45C194.14 72.26 194.82 73.22 195.29 74.33C195.76 75.44 195.99 76.68 195.99 78.04V78.22C195.99 79.55 195.76 80.78 195.29 81.91C194.82 83.03 194.14 84 193.25 84.81C192.36 85.62 191.28 86.24 190.02 86.69C188.76 87.13 187.32 87.37 185.7 87.39H183.1V90.64H176.53V87.39H173.93C172.31 87.37 170.87 87.13 169.59 86.69C168.31 86.25 167.24 85.62 166.36 84.81C165.48 84 164.81 83.04 164.34 81.91C163.87 80.79 163.64 79.56 163.64 78.22V78.04C163.64 76.68 163.87 75.45 164.34 74.33C164.81 73.22 165.48 72.26 166.36 71.45C167.24 70.64 168.32 70.01 169.59 69.55C170.86 69.09 172.31 68.87 173.93 68.87H176.53V66.03H183.1V68.87ZM174.81 73.9C174.2 73.9 173.63 73.99 173.09 74.16C172.55 74.34 172.08 74.59 171.67 74.93C171.26 75.27 170.94 75.7 170.72 76.21C170.5 76.72 170.39 77.35 170.39 78.07V78.21C170.39 78.89 170.5 79.49 170.72 80.02C170.94 80.55 171.26 80.97 171.67 81.3C172.08 81.63 172.55 81.89 173.09 82.07C173.63 82.26 174.2 82.35 174.81 82.35H176.53V73.88H174.81V73.9ZM183.1 82.36H184.82C185.45 82.36 186.03 82.27 186.56 82.08C187.09 81.89 187.55 81.64 187.95 81.31C188.35 80.98 188.66 80.56 188.9 80.03C189.13 79.5 189.25 78.9 189.25 78.22V78.08C189.25 77.35 189.13 76.73 188.9 76.22C188.67 75.7 188.35 75.28 187.95 74.94C187.55 74.6 187.09 74.34 186.56 74.17C186.03 73.99 185.45 73.91 184.82 73.91H183.1V82.36Z" fill="#1D1D1B"/>
<path d="M225.56 78.45C225.56 80.37 225.25 82.11 224.63 83.67C224.01 85.23 223.14 86.56 222.01 87.67C220.89 88.78 219.55 89.64 217.99 90.25C216.43 90.86 214.72 91.16 212.84 91.16C210.97 91.16 209.26 90.86 207.71 90.25C206.16 89.64 204.83 88.78 203.71 87.67C202.59 86.56 201.71 85.22 201.09 83.67C200.47 82.11 200.16 80.38 200.16 78.45V78.24C200.16 76.32 200.47 74.58 201.09 73.02C201.71 71.46 202.58 70.13 203.71 69.02C204.83 67.91 206.17 67.05 207.71 66.44C209.26 65.83 210.96 65.53 212.84 65.53C214.71 65.53 216.43 65.83 217.99 66.44C219.55 67.05 220.89 67.91 222.01 69.02C223.13 70.13 224.01 71.47 224.63 73.02C225.25 74.58 225.56 76.32 225.56 78.24V78.45ZM218.4 74.97C218.1 74.03 217.69 73.27 217.19 72.69C216.69 72.1 216.06 71.67 215.31 71.37C214.56 71.08 213.74 70.93 212.85 70.93C211.96 70.93 211.15 71.08 210.41 71.37C209.67 71.66 209.05 72.1 208.53 72.69C208.01 73.28 207.62 74.04 207.34 74.97C207.06 75.91 206.92 77 206.92 78.24V78.45C206.92 79.69 207.06 80.78 207.34 81.72C207.62 82.66 208.02 83.42 208.53 84C209.04 84.59 209.67 85.02 210.41 85.32C211.15 85.61 211.96 85.76 212.85 85.76C213.74 85.76 214.56 85.61 215.31 85.32C216.06 85.03 216.69 84.59 217.19 84C217.69 83.41 218.1 82.65 218.4 81.72C218.7 80.78 218.86 79.7 218.86 78.45V78.24C218.85 77 218.7 75.91 218.4 74.97Z" fill="#1D1D1B"/>
<path d="M236.95 66.05V75.3201H246.75V66.05H253.28V90.6401H246.75V80.9101H236.95V90.6401H230.45V66.05H236.95Z" fill="#1D1D1B"/>
<path d="M283.64 66.05V85.0201H286.73V95.5601H280.65V90.6401H265.05V95.5601H258.97V85.0201H261.92C262.2 83.7601 262.43 82.4201 262.6 81.0001C262.78 79.5801 262.92 78.1001 263.04 76.5401C263.16 74.9801 263.24 73.3301 263.29 71.5901C263.34 69.8501 263.36 68.0001 263.36 66.0601H283.64V66.05ZM269.8 75.4601C269.73 76.6801 269.63 77.8401 269.5 78.9501C269.37 80.0601 269.22 81.1301 269.04 82.1501C268.86 83.1701 268.67 84.1201 268.46 85.0101H277.1V71.6601H269.93C269.92 72.9801 269.87 74.2401 269.8 75.4601Z" fill="#1D1D1B"/>
<path d="M186.89 106.42V131.01H180.36V112.04L170.84 112.01V131.01H164.34V106.42H186.89Z" fill="#1D1D1B"/>
<path d="M217.25 118.82C217.25 120.74 216.94 122.48 216.32 124.04C215.7 125.6 214.83 126.93 213.7 128.04C212.58 129.15 211.24 130.01 209.68 130.62C208.12 131.23 206.41 131.53 204.53 131.53C202.66 131.53 200.95 131.23 199.4 130.62C197.85 130.01 196.52 129.15 195.4 128.04C194.28 126.93 193.4 125.59 192.78 124.04C192.16 122.48 191.85 120.75 191.85 118.82V118.61C191.85 116.69 192.16 114.95 192.78 113.39C193.4 111.83 194.27 110.5 195.4 109.39C196.52 108.28 197.86 107.42 199.4 106.81C200.95 106.2 202.65 105.9 204.53 105.9C206.4 105.9 208.12 106.2 209.68 106.81C211.24 107.42 212.58 108.28 213.7 109.39C214.82 110.5 215.7 111.84 216.32 113.39C216.94 114.95 217.25 116.69 217.25 118.61V118.82ZM210.08 115.34C209.78 114.4 209.37 113.64 208.87 113.06C208.37 112.47 207.74 112.04 206.99 111.74C206.24 111.45 205.42 111.3 204.53 111.3C203.64 111.3 202.83 111.45 202.09 111.74C201.35 112.03 200.73 112.47 200.21 113.06C199.69 113.65 199.3 114.41 199.02 115.34C198.74 116.28 198.6 117.37 198.6 118.61V118.82C198.6 120.06 198.74 121.15 199.02 122.09C199.3 123.03 199.7 123.79 200.21 124.37C200.72 124.96 201.35 125.39 202.09 125.69C202.83 125.98 203.64 126.13 204.53 126.13C205.42 126.13 206.24 125.98 206.99 125.69C207.74 125.4 208.37 124.96 208.87 124.37C209.37 123.78 209.78 123.02 210.08 122.09C210.38 121.15 210.54 120.07 210.54 118.82V118.61C210.54 117.37 210.38 116.28 210.08 115.34Z" fill="#1D1D1B"/>
<path d="M242.06 106.42V111.44H233.56V131H227.06V111.44H218.56V106.42H242.06Z" fill="#1D1D1B"/>
<path d="M266.97 131.01H260.37V127.78C259.85 128.41 259.29 128.97 258.67 129.45C258.05 129.93 257.38 130.32 256.65 130.63C255.92 130.93 255.15 131.16 254.33 131.31C253.51 131.46 252.66 131.54 251.77 131.54C250.81 131.54 249.88 131.38 248.98 131.07C248.08 130.75 247.27 130.29 246.56 129.66C245.85 129.04 245.29 128.26 244.89 127.32C244.49 126.38 244.29 125.31 244.29 124.09V123.91C244.29 122.76 244.48 121.75 244.87 120.87C245.26 119.99 245.84 119.24 246.61 118.62C247.38 118 248.34 117.53 249.47 117.2C250.61 116.87 251.89 116.71 253.32 116.71H260.38V114.67C260.36 114.11 260.24 113.6 260.03 113.14C259.82 112.68 259.53 112.3 259.17 111.98C258.81 111.66 258.37 111.42 257.85 111.24C257.33 111.06 256.78 110.98 256.2 110.98C255.71 110.98 255.18 111.04 254.6 111.17C254.03 111.3 253.51 111.51 253.04 111.8C252.57 112.09 252.2 112.49 251.93 112.99C251.66 113.49 251.58 114.11 251.7 114.83H244.96C244.8 113.33 245 112.02 245.57 110.9C246.14 109.78 246.96 108.84 248.01 108.09C249.06 107.34 250.32 106.78 251.77 106.42C253.22 106.06 254.74 105.88 256.34 105.88C258.05 105.88 259.57 106.06 260.89 106.42C262.21 106.78 263.33 107.33 264.24 108.07C265.15 108.81 265.84 109.73 266.31 110.83C266.78 111.93 267.01 113.23 267.01 114.73L266.97 131.01ZM254.6 120.75C254.11 120.75 253.64 120.8 253.2 120.91C252.75 121.01 252.37 121.17 252.06 121.38C251.74 121.59 251.5 121.88 251.32 122.26C251.14 122.63 251.06 123.09 251.06 123.63V123.7C251.06 124.17 251.14 124.59 251.31 124.96C251.47 125.33 251.72 125.65 252.05 125.91C252.38 126.17 252.76 126.36 253.19 126.49C253.62 126.62 254.1 126.68 254.61 126.68C255.08 126.68 255.56 126.64 256.07 126.57C256.57 126.5 257.08 126.35 257.58 126.13C258.08 125.91 258.57 125.59 259.05 125.16C259.53 124.74 259.97 124.18 260.37 123.47V120.75H254.6Z" fill="#1D1D1B"/>
<path d="M279.98 106.42V115.69H289.78V106.42H296.31V131.01H289.78V121.28H279.98V131.01H273.48V106.42H279.98Z" fill="#1D1D1B"/>
<path d="M325.84 131.01H319.34V115.52H319.27L309.4 131.01H302.8V106.42H309.02V121.94H309.09L318.99 106.42H325.84V131.01Z" fill="#1D1D1B"/>
<path d="M338.96 106.42V115.69H348.76V106.42H355.29V131.01H348.76V121.28H338.96V131.01H332.46V106.42H338.96Z" fill="#1D1D1B"/>
<path d="M384.05 131.01H377.45V127.78C376.93 128.41 376.37 128.97 375.75 129.45C375.13 129.93 374.46 130.32 373.73 130.63C373 130.93 372.23 131.16 371.41 131.31C370.59 131.46 369.74 131.54 368.85 131.54C367.89 131.54 366.96 131.38 366.06 131.07C365.16 130.75 364.35 130.29 363.64 129.66C362.93 129.04 362.37 128.26 361.97 127.32C361.57 126.38 361.37 125.31 361.37 124.09V123.91C361.37 122.76 361.56 121.75 361.95 120.87C362.34 119.99 362.92 119.24 363.69 118.62C364.46 118 365.42 117.53 366.55 117.2C367.69 116.87 368.97 116.71 370.4 116.71H377.46V114.67C377.44 114.11 377.32 113.6 377.11 113.14C376.9 112.68 376.61 112.3 376.25 111.98C375.89 111.66 375.45 111.42 374.93 111.24C374.41 111.06 373.86 110.98 373.28 110.98C372.79 110.98 372.26 111.04 371.68 111.17C371.11 111.3 370.59 111.51 370.12 111.8C369.65 112.09 369.28 112.49 369.01 112.99C368.74 113.49 368.66 114.11 368.78 114.83H362.04C361.88 113.33 362.08 112.02 362.65 110.9C363.22 109.78 364.04 108.84 365.09 108.09C366.14 107.34 367.4 106.78 368.85 106.42C370.3 106.06 371.82 105.88 373.42 105.88C375.13 105.88 376.65 106.06 377.97 106.42C379.29 106.78 380.41 107.33 381.32 108.07C382.23 108.81 382.92 109.73 383.39 110.83C383.86 111.93 384.09 113.23 384.09 114.73L384.05 131.01ZM371.69 120.75C371.2 120.75 370.73 120.8 370.29 120.91C369.84 121.01 369.46 121.17 369.15 121.38C368.83 121.59 368.59 121.88 368.41 122.26C368.23 122.63 368.15 123.09 368.15 123.63V123.7C368.15 124.17 368.23 124.59 368.4 124.96C368.56 125.33 368.81 125.65 369.14 125.91C369.47 126.17 369.85 126.36 370.28 126.49C370.71 126.62 371.19 126.68 371.7 126.68C372.17 126.68 372.65 126.64 373.16 126.57C373.66 126.5 374.17 126.35 374.67 126.13C375.17 125.91 375.66 125.59 376.14 125.16C376.62 124.74 377.06 124.18 377.46 123.47V120.75H371.69Z" fill="#1D1D1B"/>
<path d="M223.75 164.99C223.08 163.69 222.22 162.62 221.17 161.78C220.12 160.94 218.92 160.33 217.57 159.92C216.22 159.52 214.88 159.32 213.55 159.32C212.9 159.32 212.24 159.35 211.58 159.41C210.91 159.47 210.27 159.55 209.65 159.64C209.03 159.73 208.45 159.83 207.91 159.92C207.37 160.01 206.91 160.12 206.54 160.25L207.33 154.53H223.45V147.65H199.52L197.71 164.47L205.89 166.28C206.2 166.03 206.52 165.82 206.87 165.65C207.21 165.48 207.57 165.32 207.96 165.19C208.35 165.05 208.74 164.94 209.15 164.86C209.55 164.78 209.96 164.74 210.36 164.74C211.01 164.74 211.64 164.83 212.27 165C212.89 165.17 213.43 165.44 213.9 165.81C214.36 166.18 214.75 166.66 215.06 167.25C215.37 167.84 215.52 168.54 215.52 169.34V169.57C215.52 170.38 215.37 171.06 215.06 171.61C214.75 172.17 214.36 172.63 213.9 173.01C213.44 173.38 212.91 173.65 212.32 173.82C211.73 173.99 211.11 174.08 210.46 174.08C209.84 174.08 209.21 174.01 208.58 173.87C207.94 173.73 207.4 173.47 206.93 173.08C206.47 172.69 206.11 172.15 205.86 171.45C205.72 171.05 205.53 170.04 205.51 169.52H196.95C196.91 171.03 197.3 172.93 197.75 174.12C198.32 175.64 199.21 176.88 200.42 177.86C201.63 178.84 203.12 179.58 204.88 180.09C206.65 180.6 208.63 180.86 210.83 180.86C212.97 180.86 214.9 180.6 216.64 180.07C218.37 179.54 219.85 178.79 221.05 177.82C222.26 176.84 223.18 175.68 223.82 174.31C224.45 172.95 224.77 171.44 224.77 169.8V169.61C224.75 167.84 224.42 166.29 223.75 164.99Z" fill="#00ACA8"/>
<path d="M303.53 169.54C303.46 170.31 303.26 170.96 302.94 171.49C302.52 172.17 301.97 172.71 301.29 173.09C300.61 173.48 299.86 173.74 299.04 173.88C298.22 174.02 297.42 174.09 296.65 174.09C295.66 174.09 294.71 173.94 293.82 173.65C292.92 173.36 292.13 172.9 291.45 172.28C290.77 171.66 290.23 170.83 289.82 169.79C289.42 168.75 289.22 167.51 289.22 166.05V165.86H313.57V163.77C313.57 161.29 313.16 159.02 312.34 156.96C311.52 154.9 310.37 153.12 308.9 151.62C307.43 150.12 305.65 148.96 303.58 148.16C301.5 147.35 299.2 146.95 296.66 146.95C294.21 146.95 291.96 147.35 289.9 148.16C287.84 148.97 286.07 150.1 284.58 151.58C283.09 153.05 281.93 154.82 281.09 156.88C280.25 158.94 279.83 161.24 279.83 163.78V164.06C279.83 166.6 280.25 168.9 281.09 170.96C281.93 173.02 283.09 174.79 284.58 176.26C286.07 177.73 287.84 178.87 289.9 179.67C291.96 180.48 294.21 180.88 296.66 180.88C298.83 180.88 300.9 180.64 302.86 180.16C304.83 179.68 306.55 178.94 308.04 177.93C309.53 176.92 310.71 175.66 311.6 174.14C312.38 172.8 312.78 171.26 312.85 169.54H303.53ZM289.3 160.62C289.3 159.38 289.5 158.33 289.9 157.46C290.3 156.59 290.85 155.88 291.53 155.32C292.21 154.76 293 154.36 293.9 154.11C294.8 153.86 295.71 153.74 296.64 153.74C297.6 153.74 298.53 153.86 299.43 154.11C300.33 154.36 301.12 154.76 301.8 155.32C302.48 155.88 303.03 156.59 303.45 157.46C303.87 158.33 304.08 159.38 304.08 160.62V160.76H289.3V160.62Z" fill="#00ACA8"/>
<path d="M50.54 66.05H1L53.35 180.3H102.89L50.54 66.05Z" fill="#495960"/>
<path d="M127.09 1L59.92 147.59H109.46L176.63 1H127.09Z" fill="#00ACA8"/>
</svg>
