<svg width="209" height="172" viewBox="0 0 209 172" fill="none" xmlns="http://www.w3.org/2000/svg">
<path d="M26.7769 170.438C24.8696 170.286 23.29 168.819 23.009 166.927C22.6234 164.329 22.2559 161.854 21.8893 159.385C19.6439 144.34 17.5144 129.278 15.1069 114.257C10.9013 88.0027 6.5122 61.7872 2.20242 35.5481C0.910287 27.6418 0.90466 27.5241 8.98351 26.4433C46.5563 21.4107 84.148 16.5057 121.716 11.4382C140.423 8.90991 159.106 6.13623 177.801 3.44376C179.402 3.21806 180.975 2.73542 182.579 2.53292C186.12 2.06646 187.388 3.02839 187.92 6.61308C188.896 13.1908 189.757 19.7857 190.732 26.3519C196.168 62.7273 201.627 99.0992 207.074 135.473C207.16 136.053 207.248 136.645 207.323 137.226C208.117 143.535 207.451 143.989 201.01 144.625C193.241 145.399 185.499 146.596 177.784 147.813C137.272 154.183 96.7766 160.657 56.2485 166.994C47.5138 168.362 38.7193 169.407 29.9248 170.451C28.9122 170.571 27.8782 170.525 26.7769 170.438ZM118.045 151.216C114.271 130.102 110.627 109.704 106.983 89.3062C77.4624 94.0327 48.4048 98.6904 19.046 103.393C22.3658 123.602 25.6852 143.728 28.9654 163.67C58.7693 159.494 88.2044 155.385 118.045 151.216ZM192.308 75.643C188.361 74.9721 119.593 86.3672 114.212 88.482C114.245 93.3265 123.502 146.35 125.119 150.225C150.545 147.102 175.936 142.941 201.7 138.903C198.531 117.557 195.436 96.7103 192.308 75.643ZM11.9841 64.437C26.4723 61.9541 40.1978 59.5963 53.8653 57.2471C53.8839 51.7903 50.3262 29.6605 48.8164 26.2683C34.8939 28.3353 20.8323 30.4228 6.377 32.5689C8.22569 43.1077 10.0554 53.5188 11.9841 64.437ZM100.045 49.5851C98.5532 39.5387 97.1323 29.9679 95.6546 20.0143C81.3499 22.138 67.3347 24.2187 53.47 26.277C55.0046 36.6134 56.4857 46.5903 57.9772 56.6367C72.1711 54.2449 85.94 51.9399 100.045 49.5851ZM105.925 82.8118C104.195 72.8363 102.527 63.1955 100.801 53.2433C86.3781 55.2896 72.3964 57.4365 58.4945 60.52C59.974 70.4852 61.3914 80.0328 62.8639 89.9516C77.2599 87.5653 91.4011 85.217 105.925 82.8118ZM54.8261 60.7682C40.7339 63.2871 26.7299 64.7259 12.6021 67.9615C14.4721 78.1652 16.2702 87.9645 18.0924 97.9263C32.363 95.3334 46.0811 92.8462 59.556 90.3952C58.3021 81.9497 57.1236 73.9318 55.9104 65.919C55.6646 64.343 55.2566 62.791 54.8261 60.7682ZM108.717 51.8664C110.259 62.2492 111.693 71.9128 113.18 81.9244C126.445 79.6586 139.284 77.468 151.65 75.3595C150.117 65.0347 148.679 55.3479 147.192 45.3363C134.062 47.5583 121.465 49.7012 108.717 51.8664ZM103.345 19.2639C104.795 29.0319 106.195 38.4635 107.647 48.2431C120.956 46.0301 133.801 43.8859 146.788 41.7327C145.806 32.0137 144.906 22.8399 143.027 13.3727C129.475 15.3846 116.41 17.3243 103.345 19.2639ZM186.872 38.6274C174.704 40.7896 163.159 42.8473 151.165 44.9837C152.65 54.9837 154.088 64.6705 155.598 74.8445C167.446 72.5994 179.569 71.7245 191.302 68.465C189.788 58.2678 188.367 48.697 186.872 38.6274ZM146.752 13.4244C148.132 22.7167 149.465 31.6959 150.861 41.1042C162.825 39.0791 174.383 37.1142 186.117 35.1351C184.799 26.2604 183.53 17.7105 182.276 9.26501C178.458 8.58685 154.066 11.4967 146.752 13.4244Z" fill="#347664" fill-opacity="0.5"/>
</svg>
